# xmcd
#
# Track frame offsets: 
#        183
#        26525
#        61398
#        74693
#        95595
#        114653
#        136530
#        158263
#        177805
#        188343
#        211815
#        231248
#        248195
#        279845
#
# Disc length: 4134 seconds
#
# Revision: 6
# Processed by: cddbd v1.5.2PL0 Copyright (c) Steve Scherf et al.
# Submitted via: ExactAudioCopyFreeDBPlugin 1.0
#
DISCID=b210240e
DTITLE=Various Artist - Best of the Blues^ A Summit Meeting
DYEAR=1988
DGENRE=Blues
TTITLE0=Big Mama Thornton - Little Red Rooster
TTITLE1=Big Mama Thornton - Ball and Chain
TTITLE2=Jay McShann - Smooth Sailing
TTITLE3=Jay McShann - Confessin' the Blues
TTITLE4=Eddie Cleanhead Vinson - They Call Me Mr. Cleanhead
TTITLE5=Eddie Cleanhead Vinson - Hold It Right There
TTITLE6=Eddie Cleanhead Vinson - Back Door Blues
TTITLE7=Eddie Cleanhead Vinson - Kidney Stew
TTITLE8=Arthur Big Boy Crudup - That's Alright Now Mama
TTITLE9=Muddy Waters - Long Distance Call
TTITLE10=Muddy Waters - Where's My Woman Been
TTITLE11=Muddy Waters - Got My Mojo Workin'
TTITLE12=Clearence Gatemouth Brown - The Drifter
TTITLE13=B.B. King - Outside Help
EXTD=
EXTT0=
EXTT1=
EXTT2=
EXTT3=
EXTT4=
EXTT5=
EXTT6=
EXTT7=
EXTT8=
EXTT9=
EXTT10=
EXTT11=
EXTT12=
EXTT13=
PLAYORDER=
